<?xml version="1.0" standalone="no"?>
<!DOCTYPE svg PUBLIC "-//W3C//DTD SVG 20010904//EN"
 "http://www.w3.org/TR/2001/REC-SVG-20010904/DTD/svg10.dtd">
<svg version="1.0" xmlns="http://www.w3.org/2000/svg"
 width="507.000000pt" height="162.000000pt" viewBox="0 0 507.000000 162.000000"
 preserveAspectRatio="xMidYMid meet">

<g transform="translate(0.000000,162.000000) scale(0.100000,-0.100000)"
fill="#000000" stroke="none">
<path d="M1058 1523 c-18 -8 -25 -19 -170 -248 l-89 -140 143 -3 c79 -1 152 0
164 2 12 3 37 32 59 68 63 105 50 98 206 98 76 0 140 -4 143 -9 3 -4 -21 -48
-52 -97 -222 -340 -592 -926 -592 -936 0 -17 108 -175 124 -181 25 -10 57 27
143 163 44 69 120 188 170 265 49 77 122 192 162 255 40 63 110 174 155 245
176 275 306 484 306 494 0 5 -4 12 -10 16 -14 9 -843 16 -862 8z"/>
<path d="M113 1508 c-34 -44 -33 -47 114 -270 58 -90 134 -206 168 -258 129
-199 221 -340 310 -475 51 -77 97 -150 104 -162 6 -13 15 -23 20 -23 4 0 59
80 121 178 63 97 147 229 188 292 41 63 75 119 76 125 1 5 5 15 8 21 5 8 -94
13 -345 18 -193 4 -353 9 -355 11 -6 6 18 46 176 285 85 129 157 243 160 253
4 16 -18 17 -366 17 -284 0 -372 -3 -379 -12z"/>
<path d="M2060 1310 c0 -5 20 -65 44 -132 24 -68 61 -171 81 -230 l38 -108 57
0 c53 0 58 2 68 28 19 46 162 444 162 449 0 2 -21 3 -47 1 l-46 -3 -18 -55
c-10 -30 -39 -122 -64 -204 -26 -81 -50 -144 -55 -140 -4 5 -12 25 -18 44 -6
19 -34 108 -62 198 l-51 162 -44 0 c-25 0 -45 -4 -45 -10z"/>
<path d="M2580 1080 l0 -240 45 0 45 0 0 240 0 240 -45 0 -45 0 0 -240z"/>
<path d="M2790 1081 l0 -241 43 0 42 0 -1 88 c0 48 1 93 4 100 3 7 24 12 59
12 71 0 98 -25 108 -101 13 -91 18 -99 68 -99 l44 0 -13 53 c-7 28 -15 69 -19
91 -3 21 -18 50 -32 64 -19 19 -23 27 -12 31 8 2 26 17 41 32 22 22 28 37 28
73 0 108 -36 130 -222 134 l-138 4 0 -241z m250 149 c27 -27 26 -81 -1 -106
-26 -23 -147 -34 -159 -14 -6 10 -7 126 -1 138 0 1 33 2 71 2 57 0 74 -4 90
-20z"/>
<path d="M3200 1285 l0 -35 85 0 85 0 0 -205 0 -205 45 0 45 0 0 205 0 205 80
0 80 0 0 35 0 35 -210 0 -210 0 0 -35z"/>
<path d="M3682 1136 c4 -157 7 -188 24 -221 30 -58 80 -80 179 -80 99 0 140
20 173 85 20 41 22 57 22 222 l0 178 -45 0 -45 0 0 -179 c0 -178 0 -180 -26
-210 -23 -28 -32 -31 -79 -31 -43 0 -60 5 -82 24 l-28 24 -3 186 -4 186 -45 0
-46 0 5 -184z"/>
<path d="M4305 1303 c-3 -10 -40 -110 -80 -223 -41 -113 -77 -213 -81 -223 -6
-16 -1 -18 41 -15 l48 3 21 60 c12 33 25 66 29 73 9 13 144 17 163 4 6 -4 21
-37 33 -74 l23 -68 47 0 48 0 -85 240 -86 240 -57 0 c-45 0 -58 -4 -64 -17z
m98 -160 l25 -83 -59 0 c-33 0 -59 4 -59 9 0 27 53 172 60 165 4 -5 19 -46 33
-91z"/>
<path d="M4670 1080 l0 -240 170 0 170 0 0 35 0 34 -127 3 -128 3 -3 203 -2
202 -40 0 -40 0 0 -240z"/>
<path d="M2236 517 c-91 -52 -104 -191 -24 -263 47 -43 133 -53 190 -23 15 8
16 13 6 28 -9 15 -17 17 -35 10 -64 -24 -136 2 -159 56 -18 44 -18 59 2 101
26 55 103 81 154 54 15 -8 21 -6 30 9 14 27 14 28 -21 40 -49 17 -100 13 -143
-12z"/>
<path d="M2470 537 c0 -2 27 -52 60 -113 52 -94 60 -116 60 -161 0 -46 3 -53
20 -53 18 0 20 7 20 54 0 47 7 66 60 159 33 59 60 109 60 112 0 3 -11 5 -25 5
-21 0 -31 -12 -65 -80 -22 -44 -44 -80 -48 -80 -4 0 -26 36 -47 80 -35 72 -42
80 -67 80 -15 0 -28 -1 -28 -3z"/>
<path d="M2828 374 l3 -167 75 5 c60 4 79 9 99 28 35 33 35 91 -1 119 -25 19
-26 23 -12 39 38 43 29 109 -18 131 -14 6 -53 11 -87 11 l-62 0 3 -166z m130
104 c7 -7 12 -21 12 -33 0 -31 -19 -45 -62 -45 l-38 0 0 45 0 45 38 0 c21 0
43 -5 50 -12z m10 -144 c45 -32 15 -74 -54 -74 l-44 0 0 45 0 45 38 0 c21 0
48 -7 60 -16z"/>
<path d="M3120 375 l0 -165 105 0 105 0 0 25 c0 25 -1 25 -85 25 l-85 0 0 50
0 50 75 0 c73 0 75 1 75 25 0 24 -2 25 -75 25 l-75 0 0 40 0 40 85 0 c84 0 85
0 85 25 l0 25 -105 0 -105 0 0 -165z"/>
<path d="M3420 376 c0 -159 1 -166 20 -166 18 0 20 7 20 60 l0 60 33 0 c28 0
36 -7 71 -60 30 -47 44 -60 63 -60 l25 0 -23 38 c-59 98 -56 88 -29 117 36 39
35 105 -3 142 -24 24 -36 28 -102 31 l-75 4 0 -166z m150 95 c28 -53 0 -91
-66 -91 l-44 0 0 55 0 55 50 0 c38 0 52 -4 60 -19z"/>
<path d="M3873 378 l2 -163 101 -3 102 -3 4 26 5 25 -83 0 -84 0 0 140 0 140
-25 0 -24 0 2 -162z"/>
<path d="M4203 375 c-68 -159 -70 -165 -47 -165 18 0 26 8 35 40 l12 40 69 0
68 0 16 -40 c13 -32 21 -40 41 -40 16 0 23 4 20 13 -37 91 -131 304 -136 310
-4 4 -39 -67 -78 -158z m91 32 c32 -78 32 -77 -19 -77 -43 0 -46 2 -39 22 12
37 34 88 39 88 3 0 11 -15 19 -33z"/>
<path d="M4490 376 l0 -166 63 0 c76 0 127 23 140 63 12 39 1 76 -28 89 l-24
11 19 25 c27 34 26 93 -1 118 -15 14 -40 20 -95 22 l-74 4 0 -166z m141 90
c19 -40 -3 -66 -56 -66 l-45 0 0 45 0 45 45 0 c38 0 47 -4 56 -24z m0 -126
c11 -6 19 -21 19 -35 0 -30 -26 -45 -79 -45 -41 0 -41 0 -41 38 0 21 3 42 7
45 10 11 72 8 94 -3z"/>
<path d="M4814 528 c-12 -5 -27 -21 -33 -34 -26 -58 -5 -99 66 -129 50 -21 73
-43 73 -71 0 -41 -35 -49 -135 -32 -40 6 -21 -27 23 -41 101 -32 187 36 152
119 -9 21 -31 40 -74 63 -49 26 -62 37 -64 59 -4 36 30 52 80 37 47 -13 60
-11 56 8 -5 29 -100 43 -144 21z"/>
</g>
</svg>
